<svg width="24" height="24" viewBox="0 0 24 24" fill="none" xmlns="http://www.w3.org/2000/svg">
<g clip-path="url(#clip0)">
<path d="M14.5 20.9999H9.5C9.2 20.9999 9 20.7999 9 20.4999C9 20.1999 9.2 19.9999 9.5 19.9999H14.5C14.8 19.9999 15 20.1999 15 20.4999C15 20.7999 14.8 20.9999 14.5 20.9999Z" fill="black"/>
<path d="M18.6999 5.80001C18.5999 5.80001 18.3999 5.80001 18.2999 5.70001C18.0999 5.50001 18.0999 5.20001 18.2999 5.00001L19.6999 3.60001C19.8999 3.40001 20.1999 3.40001 20.3999 3.60001C20.5999 3.80001 20.5999 4.10001 20.3999 4.30001L18.9999 5.70001C18.9999 5.70001 18.7999 5.80001 18.6999 5.80001Z" fill="black"/>
<path d="M23.5 12.5001H21.5C21.2 12.5001 21 12.3001 21 12.0001C21 11.7001 21.2 11.5001 21.5 11.5001H23.5C23.8 11.5001 24 11.7001 24 12.0001C24 12.3001 23.8 12.5001 23.5 12.5001Z" fill="black"/>
<path d="M20.0999 20.6001C19.9999 20.6001 19.7999 20.6001 19.6999 20.5001L18.2999 19.1001C18.0999 18.9001 18.0999 18.6001 18.2999 18.4001C18.4999 18.2001 18.7999 18.2001 18.9999 18.4001L20.3999 19.8001C20.5999 20.0001 20.5999 20.3001 20.3999 20.5001C20.3999 20.6001 20.2999 20.6001 20.0999 20.6001Z" fill="black"/>
<path d="M3.9001 20.6001C3.8001 20.6001 3.6001 20.6001 3.5001 20.5001C3.3001 20.3001 3.3001 20.0001 3.5001 19.8001L4.9001 18.4001C5.1001 18.2001 5.4001 18.2001 5.6001 18.4001C5.8001 18.6001 5.8001 18.9001 5.6001 19.1001L4.2001 20.5001C4.1001 20.6001 4.0001 20.6001 3.9001 20.6001Z" fill="black"/>
<path d="M2.5 12.5001H0.5C0.2 12.5001 0 12.3001 0 12.0001C0 11.7001 0.2 11.5001 0.5 11.5001H2.5C2.8 11.5001 3 11.7001 3 12.0001C3 12.3001 2.8 12.5001 2.5 12.5001Z" fill="black"/>
<path d="M5.3001 5.79997C5.2001 5.79997 5.0001 5.79997 4.9001 5.69997L3.5001 4.19997C3.3001 3.99997 3.3001 3.69998 3.5001 3.49998C3.7001 3.29998 4.0001 3.29998 4.2001 3.49998L5.6001 4.89997C5.8001 5.09997 5.8001 5.39997 5.6001 5.59997C5.5001 5.69997 5.4001 5.79997 5.3001 5.79997Z" fill="black"/>
<path d="M12.5 16H10C9.7 16 9.5 15.8 9.5 15.5C9.5 15.2 9.7 15 10 15H12.5C13.1 15 13.5 14.6 13.5 14C13.5 13.4 13.1 13 12.5 13H11.5C10.4 13 9.5 12.1 9.5 11C9.5 9.9 10.4 9 11.5 9H14C14.3 9 14.5 9.2 14.5 9.5C14.5 9.8 14.3 10 14 10H11.5C10.9 10 10.5 10.4 10.5 11C10.5 11.6 10.9 12 11.5 12H12.5C13.6 12 14.5 12.9 14.5 14C14.5 15.1 13.6 16 12.5 16Z" fill="black"/>
<path d="M12 9.99994C11.7 9.99994 11.5 9.79994 11.5 9.49994V7.49994C11.5 7.19994 11.7 6.99994 12 6.99994C12.3 6.99994 12.5 7.19994 12.5 7.49994V9.49994C12.5 9.79994 12.3 9.99994 12 9.99994Z" fill="black"/>
<path d="M12 18C11.7 18 11.5 17.8 11.5 17.5V15.5C11.5 15.2 11.7 15 12 15C12.3 15 12.5 15.2 12.5 15.5V17.5C12.5 17.8 12.3 18 12 18Z" fill="black"/>
<path d="M13.5 24.0001H10.5C9.8 24.0001 9 23.4001 9 22.2001V20.1001C9 19.1001 8.5 18.2001 7.7 17.5001C5.9 16.1001 5 14.1001 5 11.9001C5.1 8.10006 8.2 5.10006 11.9 5.00006C13.8 5.00006 15.6 5.70006 16.9 7.00006C18.2 8.30006 19 10.1001 19 12.0001C19 14.1001 18.1 16.1001 16.4 17.4001C15.5 18.1001 15 19.2001 15 20.2001V22.5001C15 23.3001 14.3 24.0001 13.5 24.0001ZM12 6.00006C8.8 6.00006 6.1 8.70006 6 11.9001C6 13.8001 6.8 15.6001 8.3 16.7001C9.4 17.6001 10 18.8001 10 20.1001V22.2001C10 22.4001 10 23.0001 10.5 23.0001H13.5C13.8 23.0001 14 22.8001 14 22.5001V20.2001C14 18.9001 14.7 17.5001 15.8 16.6001C17.2 15.5001 18 13.8001 18 12.0001C18 10.4001 17.4 8.90006 16.2 7.70006C15.1 6.60006 13.6 6.00006 12 6.00006Z" fill="black"/>
<path d="M12 3C11.7 3 11.5 2.8 11.5 2.5V0.5C11.5 0.2 11.7 0 12 0C12.3 0 12.5 0.2 12.5 0.5V2.5C12.5 2.8 12.3 3 12 3Z" fill="black"/>
</g>
<defs>
<clipPath id="clip0">
<rect width="24" height="24" fill="white"/>
</clipPath>
</defs>
</svg>
